<svg xmlns="http://www.w3.org/2000/svg" width="18.744" height="14.278" viewBox="0 0 18.744 14.278"><defs><style>.a{fill:#9e9e9e;}</style></defs><g transform="translate(0 -61)"><g transform="translate(0.942 61)"><path class="a" d="M41.876,61H26.427a1.628,1.628,0,0,0-.706.165l8.394,8.394L36,67.751h0l6.586-6.585A1.628,1.628,0,0,0,41.876,61Z" transform="translate(-25.721 -61)"/></g><g transform="translate(12.382 61.942)"><path class="a" d="M344.41,86.728l-6.2,6.2,6.2,6.2a1.628,1.628,0,0,0,.165-.706V87.434A1.628,1.628,0,0,0,344.41,86.728Z" transform="translate(-338.213 -86.728)"/></g><g transform="translate(0 61.942)"><path class="a" d="M.165,86.721A1.628,1.628,0,0,0,0,87.427V98.41a1.629,1.629,0,0,0,.165.706l6.2-6.2Z" transform="translate(0 -86.721)"/></g><g transform="translate(0.941 68.915)"><path class="a" d="M36.378,277.211,34.5,279.019a.549.549,0,0,1-.776,0l-1.808-1.808-6.2,6.2a1.629,1.629,0,0,0,.706.165H41.869a1.629,1.629,0,0,0,.706-.165Z" transform="translate(-25.714 -277.211)"/></g></g></svg>